<svg width="960" height="640" viewBox="0 0 960 640" fill="none" xmlns="http://www.w3.org/2000/svg">
  <rect width="960" height="640" rx="40" fill="#0F172A"/>
  <rect x="28" y="28" width="904" height="584" rx="30" fill="#111C34" stroke="#334155" stroke-width="2"/>
  <rect x="72" y="76" width="816" height="488" rx="24" fill="#F8FAFC"/>
  <rect x="108" y="112" width="744" height="416" rx="20" fill="url(#paint0_linear_1_2)" stroke="#CBD5E1" stroke-width="2"/>
  <rect x="150" y="156" width="212" height="20" rx="10" fill="#2563EB" fill-opacity="0.22"/>
  <rect x="150" y="204" width="660" height="54" rx="16" fill="#0F172A"/>
  <rect x="150" y="284" width="442" height="16" rx="8" fill="#475569"/>
  <rect x="150" y="318" width="516" height="16" rx="8" fill="#94A3B8"/>
  <rect x="150" y="352" width="468" height="16" rx="8" fill="#94A3B8"/>
  <rect x="150" y="428" width="180" height="42" rx="21" fill="#2563EB"/>
  <circle cx="754" cy="420" r="66" fill="#DBEAFE"/>
  <circle cx="754" cy="420" r="48" fill="#2563EB"/>
  <path d="M724 512L742 454H766L784 512L754 490L724 512Z" fill="#F59E0B"/>
  <defs>
    <linearGradient id="paint0_linear_1_2" x1="480" y1="112" x2="480" y2="528" gradientUnits="userSpaceOnUse">
      <stop stop-color="#EFF6FF"/>
      <stop offset="1" stop-color="#E2E8F0"/>
    </linearGradient>
  </defs>
</svg>
