<svg width="1200" height="720" viewBox="0 0 1200 720" fill="none" xmlns="http://www.w3.org/2000/svg">
  <rect width="1200" height="720" fill="#0F172A"/>
  <rect x="104" y="112" width="992" height="496" rx="32" fill="#111827"/>
  <rect x="150" y="158" width="268" height="404" rx="26" fill="#1F2937"/>
  <rect x="190" y="206" width="188" height="24" rx="12" fill="#E879F9"/>
  <rect x="190" y="252" width="128" height="16" rx="8" fill="#94A3B8"/>
  <rect x="190" y="306" width="188" height="116" rx="22" fill="url(#paint0_linear)"/>
  <rect x="190" y="448" width="88" height="36" rx="18" fill="#8B5CF6"/>
  <rect x="306" y="448" width="72" height="36" rx="18" fill="#F472B6"/>
  <rect x="458" y="158" width="592" height="88" rx="26" fill="#1E293B"/>
  <rect x="502" y="192" width="200" height="18" rx="9" fill="#F8FAFC"/>
  <rect x="502" y="224" width="280" height="14" rx="7" fill="#94A3B8"/>
  <rect x="458" y="280" width="270" height="282" rx="26" fill="#1E293B"/>
  <rect x="496" y="320" width="194" height="114" rx="22" fill="url(#paint1_linear)"/>
  <rect x="766" y="280" width="284" height="128" rx="26" fill="#1E293B"/>
  <rect x="804" y="320" width="120" height="18" rx="9" fill="#F8FAFC"/>
  <rect x="804" y="352" width="188" height="14" rx="7" fill="#94A3B8"/>
  <rect x="766" y="434" width="284" height="128" rx="26" fill="#1E293B"/>
  <circle cx="858" cy="498" r="34" fill="#8B5CF6"/>
  <circle cx="954" cy="498" r="34" fill="#EC4899"/>
  <defs>
    <linearGradient id="paint0_linear" x1="190" y1="306" x2="378" y2="422" gradientUnits="userSpaceOnUse">
      <stop stop-color="#6366F1"/>
      <stop offset="1" stop-color="#EC4899"/>
    </linearGradient>
    <linearGradient id="paint1_linear" x1="496" y1="320" x2="690" y2="434" gradientUnits="userSpaceOnUse">
      <stop stop-color="#A855F7"/>
      <stop offset="1" stop-color="#F472B6"/>
    </linearGradient>
  </defs>
</svg>
